<svg id="Layer_1" data-name="Layer 1" xmlns="http://www.w3.org/2000/svg" viewBox="0 0 434.69 227.31"><title>Kalon Logo</title><g id="Layer_4" data-name="Layer 4"><path d="M620.37,265.91a46.13,46.13,0,0,0,92.2,0Z" transform="translate(-282.01 -87.18)" style="fill:none;stroke:#f6d7d4;stroke-miterlimit:10;stroke-width:8px"/></g><g id="Layer_3" data-name="Layer 3"><path d="M532,99.93a16.54,16.54,0,0,1-7.4-4.63c-10.6-10.56-23.92-11.17-34.27.2-2.3,2.53-5.31,4.7-8.5,4.68-3.39,0-6.64-2.28-9.25-4.88-10.6-10.56-23.93-11.17-34.27.2-2.3,2.53-5.31,4.7-8.5,4.68-3.39,0-6.64-2.28-9.25-4.88-10.6-10.56-23.92-11.17-34.27.2-2.3,2.53-5.31,4.7-8.5,4.68-3.39,0-6.64-2.28-9.25-4.88-10.6-10.56-23.92-11.17-34.27.2-2.3,2.53-5.31,4.7-8.5,4.68-3.39,0-6.64-2.28-9.25-4.88-10.6-10.56-23.92-11.17-34.27.2l-.25.26v12.67a26.69,26.69,0,0,0,8.68-6.51c2.3-2.53,5.31-4.7,8.5-4.68,3.39,0,6.64,2.28,9.25,4.88,10.6,10.56,23.92,11.17,34.27-.2,2.3-2.53,5.31-4.7,8.5-4.68,3.39,0,6.64,2.28,9.25,4.88,10.6,10.56,23.92,11.17,34.27-.2,2.3-2.53,5.31-4.7,8.5-4.68,3.39,0,6.64,2.28,9.25,4.88,10.6,10.56,23.92,11.17,34.27-.2,2.3-2.53,5.31-4.7,8.5-4.68,3.39,0,6.64,2.28,9.26,4.88,10.6,10.56,23.92,11.17,34.27-.2,2.3-2.53,5.31-4.7,8.5-4.68,3.39,0,6.64,2.28,9.25,4.88,4.78,4.76,10.12,7.49,15.48,8Z" transform="translate(-282.01 -87.18)" style="fill:#dbd893"/></g><g style="isolation:isolate"><path d="M407.41,241.7h-19l-30.21-34v34H342.28V138.55H358.2v62L386.78,168h19.45l-32.41,36.11Z" transform="translate(-282.01 -87.18)" style="fill:#474646"/><path d="M475.49,168h15.92V241.7H475.49V231.09q-9,12.53-25.78,12.53a34.55,34.55,0,0,1-25.94-11.28Q413,221.08,413,204.86t10.76-27.55a34.65,34.65,0,0,1,25.94-11.2q16.79,0,25.78,12.38Zm-39.93,53.72a24,24,0,0,0,33.3,0,24.79,24.79,0,0,0,0-33.75,24,24,0,0,0-33.3,0,24.79,24.79,0,0,0,0,33.75Z" transform="translate(-282.01 -87.18)" style="fill:#474646"/><path d="M514.83,241.7V134.13h15.92V241.7Z" transform="translate(-282.01 -87.18)" style="fill:#474646"/><path d="M588.8,243.62a37.74,37.74,0,0,1-27.55-11.2,39.12,39.12,0,0,1,0-55.11,39.58,39.58,0,0,1,55.18,0,38.76,38.76,0,0,1-27.63,66.31Zm-16.35-22.11a23.46,23.46,0,0,0,32.71,0,24.22,24.22,0,0,0,0-33.3,23.49,23.49,0,0,0-32.71,0,24.22,24.22,0,0,0,0,33.3Z" transform="translate(-282.01 -87.18)" style="fill:#474646"/><path d="M685.76,166.11q12.68,0,20.49,8.1t7.81,22.25V241.7H698.14V198.08q0-8.25-4.42-12.67T681.64,181q-8.4,0-13.56,5.23t-5.16,16V241.7H647V168h15.91v9.44Q670.15,166.1,685.76,166.11Z" transform="translate(-282.01 -87.18)" style="fill:#474646"/></g></svg>